<svg viewBox="0 0 405 458" fill="none" xmlns="http://www.w3.org/2000/svg">
  <path fill-rule="evenodd" clip-rule="evenodd"
    d="M275.615 208.042C284.833 188.98 290 167.593 290 145C290 64.9187 225.081 0 145 0C64.9187 0 0 64.9187 0 145C0 193.915 24.2213 237.173 61.3245 263.435L176.049 233.779C168.105 227.556 163 217.874 163 207C163 188.222 178.222 173 197 173C215.778 173 231 188.222 231 207C231 211.708 230.043 216.192 228.313 220.269L275.615 208.042ZM144 95C162.778 95 178 79.7777 178 61C178 42.2223 162.778 27 144 27C125.222 27 110 42.2223 110 61C110 79.7777 125.222 95 144 95ZM262 115C262 133.778 246.778 149 228 149C209.222 149 194 133.778 194 115C194 96.2223 209.222 81 228 81C246.778 81 262 96.2223 262 115ZM126 207C126 225.778 110.778 241 92 241C73.2223 241 58 225.778 58 207C58 188.222 73.2223 173 92 173C110.778 173 126 188.222 126 207ZM65 149C83.7777 149 99 133.778 99 115C99 96.2223 83.7777 81 65 81C46.2223 81 31 96.2223 31 115C31 133.778 46.2223 149 65 149ZM161 144.5C161 153.06 154.06 160 145.5 160C136.94 160 130 153.06 130 144.5C130 135.94 136.94 129 145.5 129C154.06 129 161 135.94 161 144.5Z"
    fill="#0891b2" />
  <path fill-rule="evenodd" clip-rule="evenodd"
    d="M343.5 78.5C334.3 145.7 298.5 191.5 281.5 206C306.752 200.144 308.164 205.807 311.419 218.872C312.612 223.656 314.051 229.433 317 236C389.4 180.4 405.5 107.333 404 78.5C392.8 84.1 358.833 80.8333 343.5 78.5ZM365 94H384V111H365V94ZM359.243 169.313L345.543 162L339 174.257L352.699 181.57L359.243 169.313Z"
    fill="#0891b2" />
  <path fill-rule="evenodd" clip-rule="evenodd"
    d="M44.4556 322C45.5112 324.665 48.2051 328.338 53.5 329C59.9 329.8 63.8333 324.667 65 322H313V431C313 445.912 300.912 458 286 458H56C41.0883 458 29 445.912 29 431V322H44.4556ZM68.5 367L96 339H126.5L99 367H68.5ZM140.5 367L167 339H198L171 367H140.5ZM239.5 339L213 367H243L271 339H239.5ZM276 367L297 345.5V367H276Z"
    fill="#0c5c72" />
  <path fill-rule="evenodd" clip-rule="evenodd"
    d="M294.729 219.655L19.532 289.702L33.7347 345.501L308.932 275.453L294.729 219.655ZM265.5 245L283 241L288 259.5L265.5 245ZM227 255L203 261.5L229 277L252.5 271L227 255ZM139 277L165.5 270.5L190.5 287L165.5 293L139 277ZM102.5 285.5L77.5 293L104 310L129 303L102.5 285.5ZM66.4999 317.5L50.9999 307.5C43.4999 310 38.9999 324 50.9999 328C60.5999 331.2 65.3333 322.333 66.4999 317.5Z"
    fill="#0c5c72" />
</svg>